<svg width="214" height="98" viewBox="0 0 214 98" fill="none" xmlns="http://www.w3.org/2000/svg">
<g filter="url(#filter0_d_75_1093)">
<path d="M4.875 49.4183C4.875 49.2099 4.89583 48.8558 4.9375 48.3558C4.9375 47.8141 4.9375 47.2724 4.9375 46.7308C4.9375 46.1474 4.95833 45.6058 5 45.1058C5 44.6058 5 44.2724 5 44.1058C6.04167 42.9808 6.89583 42.3141 7.5625 42.1058C8.27083 41.8974 8.83333 42.0224 9.25 42.4808C9.66667 42.8974 9.95833 43.5849 10.125 44.5433C10.3333 45.5016 10.4792 46.5849 10.5625 47.7933C10.6458 49.0016 10.6875 50.2724 10.6875 51.6058C10.6875 52.9391 10.7083 54.1891 10.75 55.3558C10.7917 56.4808 10.875 57.4808 11 58.3558C11.125 59.2308 11.3542 59.8141 11.6875 60.1058H33.125C34 60.1058 34.625 59.8349 35 59.2933C35.375 58.7516 35.5833 58.0433 35.625 57.1683C35.7083 56.2933 35.6875 55.2933 35.5625 54.1683C35.4375 53.0433 35.3125 51.8974 35.1875 50.7308C35.1042 49.5224 35.0625 48.3558 35.0625 47.2308C35.1042 46.0641 35.2917 45.0433 35.625 44.1683C36 43.2933 36.5625 42.5849 37.3125 42.0433C38.0625 41.5016 39.1667 41.2308 40.625 41.2308C41.1667 42.0224 41.5 42.8974 41.625 43.8558C41.75 44.7724 41.7708 45.7308 41.6875 46.7308C41.6458 47.7308 41.5417 48.7308 41.375 49.7308C41.25 50.6891 41.1875 51.6266 41.1875 52.5433C41.1875 55.0016 41.3333 57.4599 41.625 59.9183C41.9583 62.3766 42.2917 64.8349 42.625 67.2933C43 69.7516 43.3333 72.2099 43.625 74.6683C43.9583 77.0849 44.125 79.4808 44.125 81.8558C44.2083 84.4391 44.0417 86.2933 43.625 87.4183C43.2083 88.5016 42.6875 88.9808 42.0625 88.8558C41.4375 88.7724 40.7292 88.1474 39.9375 86.9808C39.1875 85.8141 38.4792 84.2516 37.8125 82.2933C37.1875 80.3349 36.6667 78.0433 36.25 75.4183C35.875 72.7516 35.7292 69.8766 35.8125 66.7933H13.25C13.5417 69.6683 13.9167 72.3766 14.375 74.9183C14.875 77.4599 15.25 79.7099 15.5 81.6683C15.7917 83.5849 15.8958 85.1266 15.8125 86.2933C15.7708 87.4183 15.3542 88.0016 14.5625 88.0433C13.3542 88.0433 12.3333 87.6474 11.5 86.8558C10.6667 86.0224 9.9375 84.8974 9.3125 83.4808C8.72917 82.0641 8.25 80.4183 7.875 78.5433C7.5 76.6266 7.1875 74.6266 6.9375 72.5433C6.6875 70.4183 6.47917 68.2516 6.3125 66.0433C6.1875 63.8349 6.0625 61.7099 5.9375 59.6683C5.8125 57.6266 5.66667 55.7308 5.5 53.9808C5.33333 52.1891 5.125 50.6683 4.875 49.4183ZM74.625 80.1683C73.0417 81.2516 71.6667 82.2308 70.5 83.1058C69.375 83.9391 68.2708 84.6474 67.1875 85.2308C66.1042 85.8141 64.9375 86.2516 63.6875 86.5433C62.4792 86.8349 60.9792 86.9808 59.1875 86.9808C55.3125 86.9808 52.4375 85.9599 50.5625 83.9183C48.6875 81.8349 47.75 78.7516 47.75 74.6683C47.75 73.0849 47.9583 71.4391 48.375 69.7308C48.7917 68.0224 49.3958 66.3349 50.1875 64.6683C51.0208 62.9599 52 61.3558 53.125 59.8558C54.25 58.3141 55.5208 56.9599 56.9375 55.7933C58.3542 54.6266 59.8542 53.7099 61.4375 53.0433C63.0625 52.3349 64.7708 51.9808 66.5625 51.9808C69.5625 52.2724 71.9167 53.0224 73.625 54.2308C75.3333 55.3974 76.625 56.9183 77.5 58.7933C78.375 60.6266 78.9792 62.6891 79.3125 64.9808C79.6458 67.2308 79.8958 69.5641 80.0625 71.9808C80.2708 74.3974 80.5208 76.8141 80.8125 79.2308C81.1042 81.6474 81.7083 83.8766 82.625 85.9183C82.0833 87.2933 81.5625 88.2516 81.0625 88.7933C80.6042 89.3766 80.0833 89.4808 79.5 89.1058C78.9167 88.7308 78.2292 87.8141 77.4375 86.3558C76.6875 84.8974 75.75 82.8349 74.625 80.1683ZM53.0625 74.7933C53.0625 77.1683 53.5 78.9183 54.375 80.0433C55.2917 81.1266 56.8958 81.6683 59.1875 81.6683C60.8958 81.6683 62.5208 81.3766 64.0625 80.7933C65.6458 80.1683 67.0208 79.3349 68.1875 78.2933C69.3542 77.2099 70.2917 75.9183 71 74.4183C71.7083 72.9183 72.0625 71.2516 72.0625 69.4183C72.0625 68.6683 72.0833 67.6266 72.125 66.2933C72.1667 64.9183 72.0833 63.5641 71.875 62.2308C71.6667 60.8974 71.2708 59.7516 70.6875 58.7933C70.1042 57.7933 69.2292 57.2933 68.0625 57.2933C65.8958 57.2933 63.8958 57.8558 62.0625 58.9808C60.2292 60.0641 58.6458 61.4599 57.3125 63.1683C55.9792 64.8766 54.9375 66.7724 54.1875 68.8558C53.4375 70.8974 53.0625 72.8766 53.0625 74.7933ZM71.125 36.4183L64.375 46.4183C63.875 47.0016 63.375 47.2516 62.875 47.1683C62.375 47.0849 61.9792 46.8558 61.6875 46.4808C61.4375 46.0641 61.2917 45.5641 61.25 44.9808C61.25 44.3558 61.4792 43.7516 61.9375 43.1683C62.0625 43.0433 62.1875 42.8766 62.3125 42.6683C62.4792 42.4183 62.5833 42.2516 62.625 42.1683C63.0417 41.5016 63.5208 40.7516 64.0625 39.9183C64.6042 39.0849 65.1667 38.3141 65.75 37.6058C66.3333 36.8558 66.8958 36.2099 67.4375 35.6683C68.0208 35.0849 68.5625 34.7099 69.0625 34.5433C69.5625 34.3349 69.9792 34.3766 70.3125 34.6683C70.6875 34.9183 70.9583 35.5016 71.125 36.4183ZM96 85.5433C94.7083 81.7933 93.4792 78.2933 92.3125 75.0433C91.1875 71.7516 90.1875 68.5433 89.3125 65.4183C88.4792 62.2516 87.8125 59.0433 87.3125 55.7933C86.8125 52.5433 86.5625 49.0641 86.5625 45.3558C86.5625 45.0641 86.5625 44.5433 86.5625 43.7933C86.6042 43.0016 86.625 42.1891 86.625 41.3558C86.625 40.5224 86.625 39.7308 86.625 38.9808C86.6667 38.1891 86.6875 37.6474 86.6875 37.3558C87.0625 36.5224 87.7083 35.7516 88.625 35.0433C89.5833 34.3349 90.5417 33.9808 91.5 33.9808C91.5 37.0641 91.5417 40.3558 91.625 43.8558C91.7083 47.3141 91.9583 50.7724 92.375 54.2308C92.8333 57.6891 93.5417 61.0849 94.5 64.4183C95.5 67.7099 96.8958 70.7308 98.6875 73.4808C98.7292 72.4808 98.7708 71.3766 98.8125 70.1683C98.8542 68.9599 98.9583 67.7516 99.125 66.5433C99.3333 65.3349 99.6458 64.1683 100.062 63.0433C100.479 61.9183 101.083 60.9183 101.875 60.0433C102.708 59.1683 103.771 58.4808 105.062 57.9808C106.396 57.4808 108.062 57.2516 110.062 57.2933C111.854 57.2933 113.458 57.6266 114.875 58.2933C116.333 58.9599 117.542 59.8766 118.5 61.0433C119.5 62.1683 120.25 63.5016 120.75 65.0433C121.292 66.5433 121.562 68.1474 121.562 69.8558C121.562 72.1474 121 74.3974 119.875 76.6058C118.75 78.8141 117.25 80.7933 115.375 82.5433C113.542 84.2933 111.479 85.7099 109.188 86.7933C106.896 87.8349 104.562 88.3558 102.188 88.3558C100.979 88.3558 99.8125 88.1474 98.6875 87.7308C97.5625 87.2724 96.6667 86.5433 96 85.5433ZM110.812 62.7308C109.979 63.1891 109.104 63.7308 108.188 64.3558C107.271 64.9808 106.417 65.9599 105.625 67.2933C104.875 68.5849 104.229 70.3558 103.688 72.6058C103.146 74.8558 102.812 77.8349 102.688 81.5433C102.771 81.5433 102.979 81.5641 103.312 81.6058C103.688 81.6474 103.938 81.6683 104.062 81.6683C105.188 81.6683 106.458 81.3141 107.875 80.6058C109.333 79.8974 110.729 79.0224 112.062 77.9808C113.438 76.9391 114.625 75.7933 115.625 74.5433C116.625 73.2516 117.229 72.0224 117.438 70.8558C117.562 70.1474 117.417 69.3349 117 68.4183C116.583 67.5016 116.021 66.6266 115.312 65.7933C114.646 64.9183 113.896 64.1891 113.062 63.6058C112.271 63.0224 111.521 62.7308 110.812 62.7308ZM128 64.7933C128 64.5433 128 64.1474 128 63.6058C128.042 63.0224 128.062 62.4183 128.062 61.7933C128.104 61.1683 128.125 60.5641 128.125 59.9808C128.167 59.3974 128.188 58.9808 128.188 58.7308C128.646 58.0641 129.229 57.5224 129.938 57.1058C130.688 56.6891 131.438 56.3558 132.188 56.1058C132.312 58.3558 132.667 60.7516 133.25 63.2933C133.833 65.8349 134.458 68.3974 135.125 70.9808C135.792 73.5224 136.375 76.0433 136.875 78.5433C137.417 81.0433 137.688 83.3766 137.688 85.5433C137.688 87.4183 136.729 88.3558 134.812 88.3558C133.646 88.3558 132.667 87.8766 131.875 86.9183C131.083 85.9599 130.438 84.7516 129.938 83.2933C129.479 81.7933 129.104 80.1474 128.812 78.3558C128.521 76.5224 128.312 74.7308 128.188 72.9808C128.104 71.2308 128.042 69.6266 128 68.1683C128 66.7099 128 65.5849 128 64.7933ZM128.875 41.3558C129.667 41.6891 130.333 42.2308 130.875 42.9808C131.417 43.7308 131.646 44.4183 131.562 45.0433C131.521 45.6266 131.062 46.0433 130.188 46.2933C129.312 46.5016 127.854 46.2516 125.812 45.5433C125.812 44.4183 126.021 43.4391 126.438 42.6058C126.896 41.7724 127.708 41.3558 128.875 41.3558ZM138.75 56.7308C138.75 56.6058 138.771 56.5016 138.812 56.4183C138.812 56.3349 138.833 56.2308 138.875 56.1058C139.042 55.8974 139.292 55.6266 139.625 55.2933C139.958 54.9599 140.167 54.7933 140.25 54.7933H152.812C152.812 54.3349 152.75 53.6058 152.625 52.6058C152.5 51.6058 152.375 50.5016 152.25 49.2933C152.167 48.0849 152.146 46.8349 152.188 45.5433C152.229 44.2099 152.396 43.0224 152.688 41.9808C153.021 40.8974 153.521 40.0224 154.188 39.3558C154.896 38.6474 155.875 38.2933 157.125 38.2933C157.125 42.5016 157.417 45.8766 158 48.4183C158.583 50.9599 159.354 52.9183 160.312 54.2933C161.312 55.6683 162.438 56.5641 163.688 56.9808C164.938 57.3974 166.208 57.5849 167.5 57.5433C168.833 57.4599 170.125 57.2516 171.375 56.9183C172.625 56.5849 173.729 56.3558 174.688 56.2308C175.688 56.1058 176.479 56.2099 177.062 56.5433C177.646 56.8349 177.938 57.5641 177.938 58.7308C177.938 59.6058 177.729 60.2308 177.312 60.6058C176.938 60.9808 176.188 61.2724 175.062 61.4808C174.729 61.5224 174.167 61.6058 173.375 61.7308C172.625 61.8141 171.771 61.8974 170.812 61.9808C169.854 62.0641 168.833 62.1683 167.75 62.2933C166.667 62.3766 165.646 62.4599 164.688 62.5433C163.729 62.6266 162.854 62.6891 162.062 62.7308C161.271 62.7308 160.688 62.7308 160.312 62.7308C160.312 62.9391 160.292 63.2933 160.25 63.7933C160.208 64.2933 160.188 64.6266 160.188 64.7933C160.188 66.6266 160.479 68.4183 161.062 70.1683C161.646 71.8766 162.271 73.5849 162.938 75.2933C163.646 77.0016 164.292 78.7099 164.875 80.4183C165.458 82.1266 165.75 83.8974 165.75 85.7308C165.75 86.0641 165.708 86.4183 165.625 86.7933C165.583 87.1266 165.458 87.4391 165.25 87.7308C165.083 87.9808 164.812 88.1683 164.438 88.2933C164.104 88.4599 163.625 88.4391 163 88.2308C161.417 87.8141 160.229 86.9183 159.438 85.5433C158.688 84.1683 158.125 82.5433 157.75 80.6683C157.375 78.7516 157.125 76.7308 157 74.6058C156.875 72.4808 156.667 70.5016 156.375 68.6683C156.125 66.7933 155.708 65.2099 155.125 63.9183C154.542 62.5849 153.604 61.7724 152.312 61.4808L140.25 58.7308C140.083 58.7308 139.833 58.5641 139.5 58.2308C139.167 57.8558 138.958 57.5849 138.875 57.4183C138.833 57.3349 138.812 57.2308 138.812 57.1058C138.771 57.0224 138.75 56.8974 138.75 56.7308ZM180.312 75.5433C180.312 72.9599 180.917 70.5641 182.125 68.3558C183.333 66.1058 184.917 64.1891 186.875 62.6058C188.875 60.9808 191.104 59.7099 193.562 58.7933C196.062 57.8766 198.583 57.4183 201.125 57.4183C202.542 57.4183 203.792 57.8766 204.875 58.7933C206 59.7099 206.938 60.8349 207.688 62.1683C208.438 63.4599 209 64.8349 209.375 66.2933C209.792 67.7516 210 69.0224 210 70.1058C210 72.4391 209.438 74.7099 208.312 76.9183C207.188 79.0849 205.729 81.0224 203.938 82.7308C202.146 84.3974 200.125 85.7516 197.875 86.7933C195.625 87.8349 193.375 88.3558 191.125 88.3558C189.125 88.3558 187.438 88.0224 186.062 87.3558C184.688 86.6474 183.583 85.7308 182.75 84.6058C181.917 83.4391 181.292 82.0849 180.875 80.5433C180.5 78.9599 180.312 77.2933 180.312 75.5433ZM185.625 76.1683C185.625 77.2516 185.708 78.2099 185.875 79.0433C186.083 79.8349 186.417 80.5224 186.875 81.1058C187.375 81.6891 188.021 82.1474 188.812 82.4808C189.604 82.7724 190.583 82.9183 191.75 82.9183C193.292 82.9183 194.833 82.5016 196.375 81.6683C197.917 80.7933 199.292 79.7099 200.5 78.4183C201.75 77.0849 202.75 75.6266 203.5 74.0433C204.25 72.4599 204.625 70.9183 204.625 69.4183C204.625 68.7516 204.562 68.0224 204.438 67.2308C204.312 66.4391 204.104 65.7099 203.812 65.0433C203.521 64.3766 203.104 63.8141 202.562 63.3558C202.021 62.8974 201.333 62.6683 200.5 62.6683C199.75 62.6683 198.854 62.9183 197.812 63.4183C196.812 63.9183 195.75 64.5641 194.625 65.3558C193.542 66.1474 192.458 67.0433 191.375 68.0433C190.333 69.0433 189.375 70.0433 188.5 71.0433C187.625 72.0433 186.917 73.0016 186.375 73.9183C185.875 74.8349 185.625 75.5849 185.625 76.1683Z" fill="white"/>
<g filter="url(#filter1_d_75_1093)">
<rect x="5.5" y="0.5" width="15" height="15" rx="3.5" fill="#DCFCE7" stroke="#27272A"/>
<rect x="25.5" y="0.5" width="15" height="15" rx="3.5" fill="#BBF7D0" stroke="#22C55E"/>
<rect x="45.5" y="0.5" width="15" height="15" rx="3.5" fill="#86EFAC" stroke="#16A34A"/>
<rect x="65.5" y="0.5" width="15" height="15" rx="3.5" fill="#22C55E" stroke="#166534"/>
<rect x="85.5" y="0.5" width="15" height="15" rx="3.5" fill="#16A34A" stroke="#86EFAC"/>
<rect x="105.5" y="0.5" width="15" height="15" rx="3.5" fill="#166534" stroke="#4ADE80"/>
</g>
</g>
<defs>
<filter id="filter0_d_75_1093" x="0.875" y="0" width="213.125" height="97.6683" filterUnits="userSpaceOnUse" color-interpolation-filters="sRGB">
<feFlood flood-opacity="0" result="BackgroundImageFix"/>
<feColorMatrix in="SourceAlpha" type="matrix" values="0 0 0 0 0 0 0 0 0 0 0 0 0 0 0 0 0 0 127 0" result="hardAlpha"/>
<feOffset dy="4"/>
<feGaussianBlur stdDeviation="2"/>
<feComposite in2="hardAlpha" operator="out"/>
<feColorMatrix type="matrix" values="0 0 0 0 0 0 0 0 0 0 0 0 0 0 0 0 0 0 0.25 0"/>
<feBlend mode="normal" in2="BackgroundImageFix" result="effect1_dropShadow_75_1093"/>
<feBlend mode="normal" in="SourceGraphic" in2="effect1_dropShadow_75_1093" result="shape"/>
</filter>
<filter id="filter1_d_75_1093" x="1" y="0" width="168.63" height="24" filterUnits="userSpaceOnUse" color-interpolation-filters="sRGB">
<feFlood flood-opacity="0" result="BackgroundImageFix"/>
<feColorMatrix in="SourceAlpha" type="matrix" values="0 0 0 0 0 0 0 0 0 0 0 0 0 0 0 0 0 0 127 0" result="hardAlpha"/>
<feOffset dy="4"/>
<feGaussianBlur stdDeviation="2"/>
<feComposite in2="hardAlpha" operator="out"/>
<feColorMatrix type="matrix" values="0 0 0 0 0 0 0 0 0 0 0 0 0 0 0 0 0 0 0.25 0"/>
<feBlend mode="normal" in2="BackgroundImageFix" result="effect1_dropShadow_75_1093"/>
<feBlend mode="normal" in="SourceGraphic" in2="effect1_dropShadow_75_1093" result="shape"/>
</filter>
</defs>
</svg>


